<!DOCTYPE svg PUBLIC "-//W3C//DTD SVG 1.1//EN" "http://www.w3.org/Graphics/SVG/1.1/DTD/svg11.dtd">
<!-- Uploaded to: SVG Repo, www.svgrepo.com, Transformed by: SVG Repo Mixer Tools -->
<svg width="256px" height="256px" viewBox="0 0 32.00 32.00" enable-background="new 0 0 32 32" version="1.1" xml:space="preserve" xmlns="http://www.w3.org/2000/svg" xmlns:xlink="http://www.w3.org/1999/xlink" fill="#000000" stroke="#000000" stroke-width="0.00032" transform="matrix(1, 0, 0, 1, 0, 0)">
<g id="SVGRepo_bgCarrier" stroke-width="0"/>
<g id="SVGRepo_tracerCarrier" stroke-linecap="round" stroke-linejoin="round" stroke="#CCCCCC" stroke-width="0.384"/>
<g id="SVGRepo_iconCarrier"> <g id="Smart_Watch41"/> <g id="Smart_Watch40"/> <g id="Smart_Watch39"/> <g id="Smart_Watch38"/> <g id="Smart_Watch37"/> <g id="Smart_Watch36"/> <g id="Smart_Watch35"/> <g id="Smart_Watch34"/> <g id="Smart_Watch33"/> <g id="Smart_Watch32"/> <g id="Smart_Watch31"/> <g id="Smart_Watch30"/> <g id="Smart_Watch29"/> <g id="Smart_Watch28"/> <g id="Smart_Watch27"/> <g id="Smart_Watch26"> <path d="M28,14v4c0,0.55-0.45,1-1,1h-1v4c0,1.65-1.35,3-3,3h-1.18l-0.84,4.2C20.89,30.66,20.48,31,20,31h-8 c-0.48,0-0.89-0.34-0.98-0.8L10.18,26H9c-1.65,0-3-1.35-3-3V9c0-1.65,1.35-3,3-3h1.18l0.84-4.2C11.11,1.34,11.52,1,12,1h8 c0.48,0,0.89,0.34,0.98,0.8L21.82,6H23c1.65,0,3,1.35,3,3v4h1C27.55,13,28,13.45,28,14z" fill="#81aef1"/> <g> <polygon fill="#81aef1" points="12.6349,29.0873 19.3651,29.0873 20,25.9127 12,25.9127 "/> <polygon fill="#81aef1" points="19.3651,2.9127 12.6349,2.9127 12,6.0873 20,6.0873 "/> </g> <g> <path d="M27,13h-1V9c0-1.6543-1.3457-3-3-3h-1.1803l-0.8392-4.1963C20.8867,1.3364,20.4766,1,20,1h-8 c-0.4766,0-0.8867,0.3364-0.9805,0.8037L10.1803,6H9C7.3457,6,6,7.3457,6,9v14c0,1.6543,1.3457,3,3,3h1.1803l0.8392,4.1963 C11.1133,30.6636,11.5234,31,12,31h8c0.4766,0,0.8867-0.3364,0.9805-0.8037L21.8197,26H23c1.6543,0,3-1.3457,3-3v-4h1 c0.5527,0,1-0.4478,1-1v-4C28,13.4478,27.5527,13,27,13z M12.8193,3h6.3613l0.5996,3h-7.5605L12.8193,3z M19.1807,29h-6.3613 l-0.5996-3h7.5605L19.1807,29z M24,23c0,0.5513-0.4482,1-1,1h-2H11H9c-0.5518,0-1-0.4487-1-1V9c0-0.5513,0.4482-1,1-1h2h10h0.0195 H23c0.5518,0,1,0.4487,1,1v5v4V23z" fill="#6c63ff"/> <path d="M18.9007,13.6678C19.2166,13.8767,19.5939,14,20,14c1.1025,0,2-0.897,2-2s-0.8975-2-2-2 c-1.0599,0-1.9218,0.8314-1.9874,1.8755l-4.9133,2.4567C12.7834,14.1233,12.4061,14,12,14c-1.1025,0-2,0.897-2,2s0.8975,2,2,2 c0.4061,0,0.7834-0.1233,1.0993-0.3322l4.9133,2.4567C18.0782,21.1686,18.9401,22,20,22c1.1025,0,2-0.897,2-2s-0.8975-2-2-2 c-0.4061,0-0.7834,0.1233-1.0993,0.3322L14.2363,16L18.9007,13.6678z" fill="#6c63ff"/> </g> </g> <g id="Smart_Watch25"/> <g id="Smart_Watch24"/> <g id="Smart_Watch23"/> <g id="Smart_Watch22"/> <g id="Smart_Watch21"/> <g id="Smart_Watch20"/> <g id="Smart_Watch19"/> <g id="Smart_Watch18"/> <g id="Smart_Watch17"/> <g id="Smart_Watch16"/> <g id="Smart_Watch15"/> <g id="Smart_Watch14"/> <g id="Smart_Watch13"/> <g id="Smart_Watch12"/> <g id="Smart_Watch11"/> <g id="Smart_Watch10"/> <g id="Smart_Watch09"/> <g id="Smart_Watch08"/> <g id="Smart_Watch07"/> <g id="Smart_Watch06"/> <g id="Smart_Watch05"/> <g id="Smart_Watch04"/> <g id="Smart_Watch03"/> <g id="Smart_Watch02"/> </g>
</svg>